<svg width="1194" height="1194" viewBox="0 0 1194 1194" fill="none" xmlns="http://www.w3.org/2000/svg">
<rect width="1194" height="1194" fill="#2BA149"/>
<path d="M408.561 983.79C367.761 978.49 331.361 954.99 310.661 920.59C299.061 901.39 293.161 882.89 291.161 859.59C289.861 843.19 290.661 839.39 296.761 834.49L300.661 831.39L356.061 831.09L411.461 830.89L411.261 597.09L410.961 363.39L330.961 362.89C247.861 362.39 245.361 362.19 246.861 358.29C247.161 357.59 247.061 356.99 246.661 356.99C241.461 357.79 240.461 353.29 240.461 329.59C240.461 307.99 241.161 298.79 242.561 301.09C243.261 302.09 243.461 302.09 243.461 301.19C243.461 300.49 243.961 299.89 244.461 299.89C245.061 299.89 245.261 301.39 245.061 303.39C244.761 305.89 244.961 306.89 245.961 306.89C246.961 306.89 247.361 305.09 247.361 299.79C247.361 295.79 247.861 292.09 248.561 291.29C249.561 290.09 249.461 289.59 248.561 288.59C247.561 287.69 247.461 287.79 248.061 289.19C248.561 290.49 248.261 290.79 246.861 290.19C245.661 289.79 245.361 289.89 245.861 290.69C246.761 292.29 245.461 298.89 244.261 298.89C243.661 298.89 243.561 298.19 243.861 297.29C244.161 296.49 244.061 296.09 243.461 296.39C241.861 297.39 242.261 293.59 244.961 284.49C247.361 276.19 253.261 262.99 253.461 265.69C253.461 266.29 253.961 266.89 254.461 266.89C255.161 266.89 255.161 266.19 254.361 264.79C253.661 263.49 253.661 262.89 254.261 263.29C254.861 263.69 255.261 263.19 255.161 262.19C255.061 260.19 263.061 247.79 264.261 248.09C266.661 248.59 270.461 246.49 270.661 244.49C270.661 243.39 270.861 241.89 270.861 241.19C270.961 240.49 271.561 239.39 272.261 238.69C273.061 237.99 273.561 237.89 273.461 238.39C272.961 240.59 273.561 241.29 274.461 239.89C275.261 238.69 275.461 238.79 275.461 240.69C275.461 243.39 277.061 243.59 277.961 240.89C278.361 239.69 279.361 238.99 280.661 239.19C281.761 239.29 282.961 238.79 283.261 237.99C283.561 237.19 283.261 236.89 282.561 237.29C281.961 237.69 281.461 237.49 281.461 236.89C281.461 236.19 280.661 235.99 279.461 236.39C275.861 237.59 275.461 235.79 278.761 232.99C280.461 231.39 285.461 227.99 289.761 225.39C296.561 221.29 297.761 220.89 299.261 222.09C300.761 223.19 300.861 223.19 299.661 221.79C298.561 220.29 299.261 219.79 305.661 217.49C316.361 213.49 327.661 211.19 339.461 210.49C345.261 210.19 459.561 209.89 593.461 209.79L836.961 209.49L848.461 212.09C887.361 220.69 917.661 242.69 936.361 275.89C946.961 294.69 951.861 311.69 953.561 335.39C954.161 345.29 954.461 437.89 954.261 606.39L953.861 862.39L951.761 871.89C946.561 894.89 937.861 914.39 924.961 931.69C906.061 957.09 877.161 974.79 842.761 982.09L831.961 984.39L623.461 984.49C508.761 984.59 412.061 984.29 408.561 983.79ZM719.861 942.59C714.361 936.89 707.461 928.69 704.561 924.39C694.461 909.19 685.761 888.09 683.361 872.79C682.761 868.69 682.061 864.79 681.861 864.19C681.561 863.19 644.861 862.89 502.461 862.89C391.661 862.89 323.461 863.29 323.461 863.79C323.461 866.29 326.761 878.79 329.061 884.69C332.561 893.99 339.561 906.79 344.761 913.59C360.261 933.79 385.061 947.99 411.061 951.79C414.261 952.29 487.361 952.69 573.461 952.79L729.961 952.89L719.861 942.59ZM830.961 950.89C854.761 948.19 875.261 937.99 892.061 920.69C909.561 902.69 918.461 883.29 921.461 857.19C922.261 850.19 922.461 772.59 922.261 586.89L921.961 326.39L919.661 317.89C916.961 307.99 910.461 293.79 904.461 284.79C898.561 275.99 884.261 262.19 875.361 256.59C866.561 251.09 856.061 246.59 845.561 243.59C838.261 241.59 835.561 241.49 784.461 241.19C624.061 240.29 412.461 240.49 412.461 241.49C412.461 242.09 413.461 243.39 414.561 244.49C417.661 247.19 424.861 256.69 428.261 262.59C432.861 270.29 438.061 284.29 440.661 295.39L442.861 305.39L443.161 568.19L443.461 830.89H572.561C714.361 830.89 704.861 830.49 709.561 836.99C711.261 839.39 711.961 842.69 713.061 852.19C714.561 866.49 715.461 871.09 719.061 880.99C731.061 914.39 758.261 939.59 791.261 947.99C805.361 951.49 817.361 952.39 830.961 950.89ZM248.761 322.59C249.561 321.99 249.361 321.89 248.261 322.29C246.661 322.79 246.461 322.09 246.461 317.69C246.461 312.89 246.561 312.69 247.961 314.49C248.961 315.79 249.361 315.89 249.461 314.99C249.461 313.89 249.761 313.89 250.961 314.89C251.861 315.59 252.761 315.89 253.161 315.49C253.461 315.19 253.261 314.89 252.661 314.89C251.961 314.89 251.461 313.19 251.461 310.49V306.09L247.861 307.19C244.661 308.19 244.361 308.59 244.861 311.09C245.161 312.59 245.761 319.39 246.161 326.09C246.861 337.39 246.961 337.79 247.261 330.89C247.461 326.59 248.061 323.09 248.761 322.59ZM369.261 331.89H412.761L412.061 319.99C411.161 304.59 408.461 293.59 402.961 282.39C395.761 267.69 384.361 256.19 369.961 248.89C359.261 243.49 349.861 241.59 336.461 242.19C323.561 242.69 312.761 246.39 302.661 253.59C298.961 256.19 295.561 258.19 294.961 258.09C294.461 257.89 294.261 257.99 294.661 258.39C295.061 258.79 292.561 262.29 289.261 266.19C282.361 274.59 276.461 285.99 273.461 297.39C271.261 305.59 269.561 328.09 270.861 331.49C271.461 333.09 273.361 333.19 298.661 332.59C313.561 332.19 345.361 331.89 369.261 331.89ZM253.461 275.89C254.461 275.89 255.461 274.89 255.861 273.69C256.761 270.09 256.561 268.89 255.061 268.89C254.061 268.89 253.761 269.59 253.961 270.89C254.161 271.99 253.961 272.69 253.361 272.39C252.861 271.99 252.461 272.29 252.461 272.89C252.461 273.49 252.061 273.79 251.561 273.39C251.061 273.09 250.261 273.39 249.861 273.99C249.361 274.79 249.561 274.89 250.461 274.39C251.361 273.89 251.561 274.29 251.061 275.99C250.761 277.29 250.761 277.79 251.061 277.19C251.361 276.49 252.461 275.89 253.461 275.89ZM261.461 274.89C261.461 272.99 259.461 272.19 258.161 273.59C257.361 274.29 259.261 276.89 260.561 276.89C261.061 276.89 261.461 275.99 261.461 274.89ZM262.561 268.59C261.061 267.09 261.261 262.79 262.961 260.49C264.261 258.79 264.461 258.79 265.061 260.19C265.861 262.29 267.461 262.39 267.461 260.39C267.461 259.59 266.761 258.89 265.961 258.89C265.161 258.89 264.461 258.39 264.461 257.79C264.461 256.99 263.961 256.99 262.961 257.89C262.161 258.59 261.461 259.79 261.461 260.49C261.461 261.29 260.861 261.59 259.761 261.19C258.461 260.69 258.261 260.99 258.761 262.29C259.261 263.39 259.061 263.79 258.261 263.29C257.561 262.79 257.361 263.09 257.761 264.09C258.061 264.99 257.761 266.19 257.161 266.89C256.261 267.89 256.261 267.99 257.261 267.49C257.961 267.09 259.361 267.79 260.761 269.29C261.961 270.69 263.161 271.29 263.361 270.79C263.561 270.19 263.161 269.19 262.561 268.59ZM290.461 259.19C290.461 258.89 289.561 259.39 288.461 260.39C287.361 261.39 286.461 262.59 286.461 263.09C286.461 263.49 287.361 262.99 288.461 261.89C289.561 260.79 290.461 259.59 290.461 259.19ZM285.261 256.69C285.361 254.99 285.061 253.29 284.461 252.89C283.861 252.49 283.261 250.89 283.161 249.29C283.061 247.19 283.561 246.19 285.261 245.39C290.561 243.09 286.061 241.99 279.361 244.09C274.361 245.49 274.261 247.99 278.961 249.89C281.961 251.09 282.461 251.79 282.461 254.39C282.461 256.79 283.861 259.89 284.961 259.89C284.961 259.89 285.161 258.49 285.261 256.69ZM266.461 255.09C266.461 253.59 266.661 253.59 267.461 254.89C268.261 256.09 268.461 255.99 268.461 254.29C268.461 253.09 267.661 251.49 266.761 250.79C265.761 250.09 265.261 249.79 265.661 250.29C266.461 251.19 264.061 253.99 262.761 253.79C260.861 253.49 260.461 253.99 261.561 255.19C263.361 257.09 266.461 257.09 266.461 255.09ZM291.061 250.39C292.061 249.39 292.161 248.89 291.461 248.89C290.761 248.89 290.461 248.19 290.861 247.39C291.261 246.29 290.661 245.89 288.561 245.89C286.061 245.89 285.761 246.19 286.161 247.99C286.561 249.39 287.361 249.89 288.561 249.59C291.161 248.89 290.961 249.79 288.261 250.89C286.361 251.59 286.261 251.79 287.761 251.79C288.761 251.89 290.261 251.19 291.061 250.39ZM293.461 241.49C293.461 240.69 292.661 240.19 291.761 240.39C290.761 240.59 289.661 240.79 289.261 240.79C287.161 240.99 288.761 242.89 290.961 242.89C292.461 242.89 293.461 242.29 293.461 241.49ZM289.461 237.99C290.261 237.69 292.161 237.49 293.761 237.49C295.261 237.39 296.361 236.99 296.161 236.39C295.961 235.89 296.761 234.89 297.861 234.39C300.661 232.99 300.761 228.59 297.961 228.09C296.861 227.89 295.561 227.19 294.961 226.69C294.261 225.99 294.361 225.79 295.061 226.19C295.661 226.49 296.161 226.09 296.161 225.19C296.161 223.89 295.761 223.99 294.361 225.69C292.661 227.89 289.761 228.79 290.961 226.89C292.061 225.19 290.061 225.79 287.061 228.19C284.661 230.19 284.461 230.69 285.761 231.19C286.961 231.59 287.161 231.39 286.761 230.19C286.261 228.89 286.561 228.69 287.861 229.19C288.961 229.69 289.361 229.49 288.861 228.79C288.461 228.09 288.761 227.79 289.461 228.09C291.361 228.69 291.861 230.89 290.161 230.89C289.361 230.89 288.461 231.59 288.161 232.29C287.761 233.39 288.061 233.59 289.261 233.19C290.861 232.69 290.861 232.69 289.361 233.99C288.361 234.79 287.361 236.49 286.961 237.89C286.661 239.29 286.661 239.99 287.161 239.39C287.561 238.89 288.661 238.19 289.461 237.99ZM305.061 224.19C304.761 223.19 304.961 221.69 305.461 220.89C306.261 219.69 306.461 219.69 306.461 221.39C306.461 222.99 306.661 223.09 307.361 221.89C307.961 221.09 308.061 220.09 307.861 219.69C306.961 218.29 304.461 218.79 304.461 220.39C304.461 221.29 303.861 221.59 302.761 221.29C301.461 220.89 301.361 220.99 302.261 221.59C302.961 222.19 303.461 222.99 303.361 223.49C303.061 225.09 303.461 225.89 304.561 225.89C305.161 225.89 305.361 225.09 305.061 224.19Z" fill="#F9F9FA"/>
<path d="M524.161 759.49C516.961 756.89 513.461 751.89 513.461 744.19C513.461 738.09 516.161 733.59 521.461 730.89C525.361 728.89 526.461 728.89 602.861 729.09C679.661 729.39 680.361 729.39 683.161 731.49C688.561 735.49 690.661 739.79 690.261 745.69C689.661 752.09 687.361 755.59 681.461 758.69L677.061 760.89H602.461C542.261 760.79 527.261 760.59 524.161 759.49Z" fill="#F9F9FA"/>
<path d="M524.661 683.89C518.261 682.39 513.461 675.89 513.461 668.69C513.461 662.49 516.261 657.79 521.561 655.09L525.961 652.89L684.661 653.09L843.361 653.39L846.161 655.49C856.461 663.19 855.861 678.09 845.061 682.99C841.161 684.79 834.961 684.89 684.461 684.79C598.361 684.69 526.461 684.29 524.661 683.89Z" fill="#F9F9FA"/>
<path d="M521.962 606.89C516.162 603.99 514.062 600.59 513.662 593.39C513.262 587.89 513.562 586.99 515.962 584.09C517.462 582.29 520.062 580.09 521.862 579.09C524.762 577.49 535.662 577.39 683.962 577.39C841.162 577.39 842.962 577.39 846.262 579.39C855.862 585.19 856.362 599.49 847.262 606.09L843.962 608.39L684.962 608.69C526.962 608.89 525.962 608.89 521.962 606.89Z" fill="#F9F9FA"/>
<path d="M656.46 525.39C642.06 523.69 631.46 521.49 615.16 516.79C599.26 512.29 591.06 509.19 580.16 503.69C567.16 496.89 567.96 500.59 567.66 451.39L567.36 409.39L560.66 406.69C556.96 405.19 553.16 403.69 552.26 403.39C550.66 402.79 550.56 405.09 550.26 437.29L549.96 471.89L546.26 475.59C542.96 478.79 541.86 479.29 536.56 479.69C529.06 480.19 524.16 477.59 521.36 471.49C519.66 467.69 519.46 464.29 519.46 429.29C519.46 395.89 519.26 390.99 517.86 389.79C513.16 385.89 511.96 375.99 515.56 370.29C516.76 368.29 519.56 365.99 522.76 364.49C530.36 360.89 675.86 306.59 681.06 305.49C683.96 304.79 691.56 307.29 726.46 320.39C730.06 321.69 748.06 328.39 766.46 335.19C812.46 352.29 844.46 364.69 847.26 366.59C850.86 368.79 853.76 376.29 852.96 380.79C851.26 389.99 849.56 390.99 819.46 402.19L799.96 409.49L799.46 450.89C798.86 497.29 799.06 496.49 791.66 501.39C786.56 504.79 768.26 512.09 753.96 516.39C723.96 525.49 685.96 528.99 656.46 525.39ZM707.96 493.39C714.56 492.59 724.66 490.79 730.46 489.49C741.16 486.99 762.96 479.69 765.86 477.59C767.26 476.49 767.46 473.29 767.26 449.29L766.96 422.19L750.46 428.49C715.16 441.99 685.16 452.89 683.36 452.89C682.36 452.89 678.46 451.69 674.76 450.29C670.96 448.89 659.16 444.39 648.46 440.39C637.76 436.39 622.66 430.59 614.86 427.49C607.06 424.39 600.46 421.89 600.06 421.89C599.76 421.89 599.46 434.39 599.46 449.79V477.59L609.26 481.39C625.16 487.49 646.06 492.29 664.46 494.19C673.86 495.19 697.26 494.69 707.96 493.39ZM720.96 405.59C772.46 386.19 788.86 379.89 789.76 378.99C790.16 378.59 786.56 376.69 781.76 374.89C776.96 372.99 761.96 367.29 748.46 362.19C734.96 356.99 719.96 351.19 714.96 349.29C710.06 347.49 700.86 343.99 694.66 341.59L683.26 337.19L673.16 341.09C667.56 343.29 647.26 350.89 627.96 357.99C590.26 371.89 577.36 376.79 576.16 377.89C575.36 378.59 586.16 382.99 624.46 397.39C648.06 406.29 671.06 415.09 679.46 418.39C681.36 419.19 683.46 419.69 683.96 419.49C684.56 419.29 701.16 413.09 720.96 405.59Z" fill="#F9F9FA"/>
<path d="M264.461 247.39C264.461 246.49 268.761 241.89 269.561 241.89C271.061 241.89 269.361 244.79 266.861 246.39C265.561 247.19 264.461 247.69 264.461 247.39Z" fill="#F9F9FA"/>
<path d="M239.961 328.89C234.817 239.381 300.627 213.057 331.961 211.89C350.127 220.39 375.561 238.29 331.961 241.89C288.36 245.49 273.127 289.724 270.961 311.39L268.961 361.39C242.461 361.39 242.288 369.39 239.961 328.89Z" fill="#F9F9FA"/>
</svg>
