<svg xmlns:xlink="http://www.w3.org/1999/xlink" class="img-fluid" id="outputsvg" xmlns="http://www.w3.org/2000/svg" style="transform: none; transform-origin: 50% 50%; cursor: move;" width="128" height="128" viewBox="0 0 1280 1280"><g id="l6FnKaz8YeHuICVpLpo6W4g" fill="#181206" style="transform: none;"><g style="transform: none;" fill="#181206"><path id="pOtIvtPQk" d="M 54 1208 c -49 -23 -49 -28 -49 -568 0 -550 0 -547 55 -570 18 -7 96 -10 233 -8 207 3 207 3 280 75 72 73 72 73 349 73 182 0 285 4 301 11 51 23 52 30 52 494 0 464 -1 471 -52 494 -32 15 -1139 14 -1169 -1 z  m 1126 -61 c 25 -13 25 -13 28 -353 2 -308 1 -343 -14 -355 -13 -10 -61 -15 -186 -17 -169 -3 -169 -3 -247 72 -77 76 -77 76 -357 76 -205 0 -286 4 -304 13 -25 13 -25 13 -25 282 0 269 0 269 25 282 36 18 1044 18 1080 0 z  m -555 -697 c 29 -30 29 -30 -223 -30 -215 0 -253 2 -258 15 -4 8 -4 22 0 30 4 13 39 15 229 15 223 0 223 0 252 -30 z  m -113 -263 c -62 -62 -62 -62 -225 -65 -200 -3 -211 1 -215 76 -3 52 -3 52 250 52 253 0 253 0 190 -63 z " fill="#181206"></path></g></g><g id="l5P9yWnQ0QOlJa4pT6OiiKf" fill="#FFC954" style="transform: none;"><g style="transform: none;" fill="#FFC954"><path id="pjn37O6eH" d="M 70 1177 c -25 -13 -25 -13 -25 -312 0 -299 0 -299 25 -312 18 -9 99 -13 304 -13 280 0 280 0 357 -76 78 -75 78 -75 277 -72 151 2 203 6 216 17 15 12 16 49 14 385 -3 370 -3 370 -28 383 -36 18 -1104 18 -1140 0 z " fill="#FFC954"></path><path id="p6U5er6ZB" d="M 40 321 c 0 -172 2 -200 17 -212 12 -11 62 -14 219 -14 203 0 203 0 276 72 73 72 73 72 364 75 228 2 295 6 307 17 23 18 24 113 2 105 -8 -4 -15 -17 -15 -29 0 -59 38 -55 -570 -55 -499 0 -558 2 -564 16 -3 9 -6 60 -6 114 0 78 -3 99 -15 104 -13 5 -15 -21 -15 -193 z " fill="#FFC954"></path></g></g><g id="l6JlmMz54JXpz0M3XxcOyOB" fill="#EBFBFF" style="transform: none;"><g style="transform: none;" fill="#EBFBFF"><path id="p1wpU0WUJ" d="M 114 496 c -3 -7 -4 -33 -2 -57 3 -41 5 -44 36 -49 42 -6 42 -24 0 -30 -21 -3 -34 -11 -36 -23 -3 -16 27 -17 528 -17 501 0 531 1 528 17 -3 17 -35 18 -471 21 -406 2 -467 4 -467 17 0 13 36 15 257 15 257 0 257 0 198 60 -59 60 -59 60 -313 60 -206 0 -254 -3 -258 -14 z " fill="#EBFBFF"></path></g></g></svg>